HIERARCHY
ROOT Hips
{
	OFFSET	0	0	0
	CHANNELS 6  Xposition Yposition Zposition Xrotation Yrotation Zrotation
	JOINT Spine
	{
		OFFSET	0	7.36801	1.47921
		CHANNELS 3  Xrotation Yrotation Zrotation
		JOINT Spine1
		{
			OFFSET	0	12.6146	-2.2526
			CHANNELS 3  Xrotation Yrotation Zrotation
			JOINT Spine2
			{
				OFFSET	0	9.56229	1.02493
				CHANNELS 3  Xrotation Yrotation Zrotation
				JOINT Spine3
				{
					OFFSET	0	11.4432	3.40143
					CHANNELS 3  Xrotation Yrotation Zrotation
					JOINT Spine4
					{
						OFFSET	0	16.9396	-1.7345
						CHANNELS 3  Xrotation Yrotation Zrotation
						JOINT Neck
						{
							OFFSET	0	8.08684	-5.66529
							CHANNELS 3  Xrotation Yrotation Zrotation
							JOINT Head
							{
								OFFSET	0	9.70872	-2.90586
								CHANNELS 3  Xrotation Yrotation Zrotation
								End Site
								{
									OFFSET	0	20.2509	-0.979882
								}
							}
						}
					}
					JOINT LeftShoulder
					{
						OFFSET	-4.86562	20.5888	-9.70871
						CHANNELS 3  Xrotation Yrotation Zrotation
						JOINT LeftArm
						{
							OFFSET	-10.6038	-2.90585	3.72808
							CHANNELS 3  Xrotation Yrotation Zrotation
							JOINT LeftForeArm
							{
								OFFSET	-30.8337	-1.4073	2.20088
								CHANNELS 3  Xrotation Yrotation Zrotation
								JOINT LeftHand
								{
									OFFSET	-25.1332	-1.73684	1.79398
									CHANNELS 3  Xrotation Yrotation Zrotation
									End Site
									{
										OFFSET	-9.17235	-0.633862	0.65467
									}
								}
							}
						}
					}
					JOINT RightShoulder
					{
						OFFSET	4.86562	20.5888	-9.70871
						CHANNELS 3  Xrotation Yrotation Zrotation
						JOINT RightArm
						{
							OFFSET	10.6038	-2.90585	3.72808
							CHANNELS 3  Xrotation Yrotation Zrotation
							JOINT RightForeArm
							{
								OFFSET	30.8337	-1.4073	2.20088
								CHANNELS 3  Xrotation Yrotation Zrotation
								JOINT RightHand
								{
									OFFSET	25.1332	-1.73684	1.79398
									CHANNELS 3  Xrotation Yrotation Zrotation
									End Site
									{
										OFFSET	9.17235	-0.633862	0.65467
									}
								}
							}
						}
					}
				}
			}
		}
	}
	JOINT LeftUpLeg
	{
		OFFSET	-10.0134	-3.684	-0.739604
		CHANNELS 3  Xrotation Yrotation Zrotation
		JOINT LeftLeg
		{
			OFFSET	-2.30148	-45.0967	-0.70496
			CHANNELS 3  Xrotation Yrotation Zrotation
			JOINT LeftFoot
			{
				OFFSET	-2.24997	-41.4741	3.56677
				CHANNELS 3  Xrotation Yrotation Zrotation
				JOINT LeftToeBase
				{
					OFFSET	0	-5.07523	-13.4798
					CHANNELS 3  Xrotation Yrotation Zrotation
					End Site
					{
						OFFSET	0	-2.03009	-8.12037
					}
				}
			}
		}
	}
	JOINT RightUpLeg
	{
		OFFSET	10.0134	-3.684	-0.739604
		CHANNELS 3  Xrotation Yrotation Zrotation
		JOINT RightLeg
		{
			OFFSET	2.30148	-45.0967	-0.70496
			CHANNELS 3  Xrotation Yrotation Zrotation
			JOINT RightFoot
			{
				OFFSET	2.24997	-41.4741	3.56677
				CHANNELS 3  Xrotation Yrotation Zrotation
				JOINT RightToeBase
				{
					OFFSET	0	-5.07523	-13.4798
					CHANNELS 3  Xrotation Yrotation Zrotation
					End Site
					{
						OFFSET	0	-2.03009	-8.12037
					}
				}
			}
		}
	}
}
MOTION
Frames: 13
Frame Time: 0.020408
 -53.8804 34.5355 167.156 163.758 -160.209 164.927 180 179.98 -178.992 159.949 179.961 -178.319 158.51 179.882 -178.319 162.325 179.98 -178.992 3.36887 0.019753 0.335556 32.093 -22.219 5.367 10.0108 -30.7496 0.80392 170.713 -163.888 159.787 118.041 -121.133 128.362 2.68979 -14.8815 -0.892272 -0 -18.5875 4.57186 172.175 152.435 -162.803 47.8977 27.431 -44.598 1.76891 11.9743 1.40979 -0 45.4102 26.1166 76.4926 -15.3473 -23.6189 50.355 157.586 179.655 40.1861 0.0559352 -7.38428 1.3409 0 0 139.145 -9.32481 28.1262 85.0922 -160.03 179.819 39.6113 0.0562688 -8.32137 179.649 180 -180
 -53.6574 34.4405 167.137 164.14 -160.386 165.962 180 179.973 -179.222 159.919 179.946 -178.704 158.48 179.838 -178.704 162.303 179.973 -179.222 3.36254 0.0152064 0.258809 32.154 -22.2281 5.54968 10.0461 -31.0482 0.884216 170.259 -163.457 158.724 116.072 -121.695 126.914 2.59587 -14.2262 -0.996747 -0 -18.3616 5.131 171.915 152.462 -162.218 48.1025 27.4728 -44.8634 1.75322 11.0249 1.44424 -0 45.2209 26.1652 76.3684 -16.1592 -24.8981 50.3761 157.904 179.7 39.9193 -0.0513165 -7.60542 1.34305 0 0 139.153 -9.66261 29.3204 84.7133 -160.47 -179.926 40.2575 0.01251 -8.46604 179.652 180 -180
 -53.5572 34.4942 167.17 164.564 -160.575 166.685 180 179.98 -179.388 159.896 179.96 -178.98 158.456 179.88 -178.98 162.282 179.98 -179.388 3.36825 0.011981 0.203568 32.2449 -22.3364 5.64712 10.0845 -31.282 0.92203 169.836 -162.827 157.712 114.252 -122.432 125.908 2.45818 -13.1972 -1.1344 -0 -17.8749 5.73594 171.742 152.548 -161.827 48.0108 27.4895 -45.732 1.67767 9.91973 1.39515 -0 44.9899 26.0796 76.5711 -16.9243 -25.0689 50.3974 158.216 179.741 39.0588 -0.0597658 -7.78856 1.34934 0 0 138.544 -9.46877 30.2016 84.4275 -160.799 179.935 40.5114 -0.0458411 -8.49228 179.657 180 -180
 -53.4953 34.6023 167.166 164.943 -160.928 167.492 180 179.996 -179.567 159.87 179.993 -179.278 158.439 179.978 -179.278 162.289 179.996 -179.567 3.30323 0.00832202 0.144188 32.0578 -22.3463 5.53321 10.0192 -31.1995 0.871673 169.432 -161.918 156.724 112.302 -123.14 125.123 2.30449 -11.9805 -1.23257 -0 -17.2076 6.37624 171.549 152.579 -161.39 48.0711 27.5126 -46.5061 1.61562 8.70152 1.50237 -0 44.6381 25.9562 76.9685 -17.6345 -25.1258 50.4111 158.302 179.784 38.2299 -0.00944974 -7.93648 1.35871 0 0 137.89 -9.34894 30.9937 84.0455 -161 179.904 40.5459 -0.0363445 -8.53157 179.661 180 -180
 -53.459 34.6769 167.211 165.262 -161.049 168.024 5.5804e-05 -0.0103096 0.31013 159.846 -179.979 -179.483 158.416 -179.938 -179.483 162.271 -179.99 -179.69 3.30075 0.00595213 0.103205 32.0282 -22.2796 5.42555 9.99875 -30.9554 0.827267 169.075 -161.126 155.849 110.592 -123.856 124.633 2.18494 -10.9389 -1.36394 -0 -16.5476 6.90697 171.361 152.614 -160.964 48.2534 27.613 -47.1673 1.57599 7.52972 1.47955 -0 44.2644 25.8241 77.2353 -18.1563 -25.1206 50.4151 158.378 179.872 37.6388 0.00626542 -8.06131 1.36711 0 0 137.429 -9.34515 31.5344 83.8344 -161.057 179.798 40.4158 -0.0417566 -8.57301 179.668 180 -180
 -53.4512 34.7275 167.227 165.501 -161.15 168.483 5.76065e-05 -0.0168568 0.195801 159.826 -179.966 -179.674 158.396 -179.899 -179.674 162.26 -179.983 -179.804 3.28666 0.00374187 0.0651598 31.9406 -22.1516 5.28933 9.9577 -30.6296 0.77369 168.983 -160.199 155.591 109.078 -124.552 124.397 2.0693 -10.0168 -1.47326 -0 -15.8833 7.41678 171.255 152.751 -160.722 48.8455 27.8701 -47.847 1.55529 6.49724 1.56233 -0 43.8703 25.7042 77.4909 -18.5919 -25.0974 50.3911 158.429 179.917 37.176 0.0265779 -8.17442 1.37827 0 0 137.097 -9.34975 31.9519 83.6384 -161.082 179.732 39.3423 -0.0569817 -8.59754 179.672 180 -180
 -53.3687 34.7333 167.336 165.692 -161.037 169.044 1.55573e-05 -0.0099635 0.0894634 159.791 -179.98 -179.851 158.359 -179.94 -179.851 162.23 -179.99 -179.911 3.29054 0.00171171 0.029772 31.9004 -22.0376 5.07844 9.92446 -30.1586 0.68675 168.925 -159.567 155.43 107.668 -125.145 124.265 1.95529 -9.13558 -1.40258 -0 -15.3081 8.12469 170.981 152.849 -160.098 49.4564 28.2413 -47.9846 1.5038 5.7702 1.5319 -0 43.4299 25.5162 77.583 -18.9817 -25.6455 50.3577 158.464 179.873 36.6895 0.0580661 -8.27708 1.38962 0 0 136.827 -9.80344 32.2275 83.5156 -161.135 179.738 38.2597 -0.0450824 -8.62931 179.674 180 -180
 -53.1969 34.7627 167.373 165.698 -160.939 169.475 180 179.989 -179.998 159.776 179.978 -179.997 158.359 179.934 -179.997 162.268 179.989 -179.998 3.17406 3.1505e-05 0.000568123 31.4728 -21.8683 4.80071 9.77232 -29.7355 0.576574 168.887 -159.161 155.325 106.187 -125.709 123.785 1.83783 -8.74106 -1.43921 -0 -14.8585 8.84476 170.667 153.286 -159.379 49.6768 28.325 -47.5005 1.46334 5.60749 1.45494 -0 42.9459 25.3467 77.4821 -19.384 -26.1825 50.4207 158.502 179.858 36.3805 0.0665235 -8.39427 1.40463 0 0 136.659 -10.1896 32.4841 83.4198 -161.198 179.625 38.8072 -0.024755 -8.66506 179.678 180 -180
 -53.1829 34.7801 167.362 165.68 -160.913 169.768 2.55987e-05 0.0232125 -0.0631856 159.769 179.954 179.895 158.369 179.861 179.895 162.311 179.977 179.937 3.06057 -0.00112453 -0.0210318 31.0597 -21.6999 4.57267 9.62952 -29.391 0.488748 168.857 -158.811 155.244 104.829 -126.214 123.047 1.74541 -8.66912 -1.45124 -0 -14.6281 9.54403 170.309 153.476 -158.555 49.984 28.56 -46.8477 1.39851 5.59668 1.49558 -0 42.5101 25.1441 77.3879 -19.6959 -26.6061 50.4837 158.519 179.86 36.0613 0.0806454 -8.49582 1.41708 0 0 136.58 -10.4187 32.646 83.3686 -161.188 179.581 39.2865 -0.0298042 -8.68674 179.682 180 -180
 -53.1955 34.8394 167.715 165.543 -161.061 170.002 3.51731e-05 0.0167623 -0.120227 159.757 179.966 179.8 158.365 179.899 179.8 162.328 179.983 179.88 2.99864 -0.00209644 -0.0400206 30.826 -21.5804 4.40535 9.54559 -29.1019 0.424313 168.858 -158.469 155.236 103.028 -126.467 121.861 1.67516 -8.89162 -1.3876 -0 -14.67 10.2717 169.946 153.448 -157.72 50.2673 28.8278 -46.3782 1.33116 5.65245 1.53957 -0 42.1811 24.9598 77.166 -19.8756 -27.2623 50.613 158.517 179.887 35.5377 0.0993802 -8.58402 1.4264 0 0 136.583 -10.6106 32.7681 83.363 -161.112 179.559 39.6296 -0.0414483 -8.70567 179.689 180 -180
 -53.2662 34.637 167.591 165.697 -160.899 170.126 2.78095e-05 0.0106847 -0.149125 159.693 179.979 179.751 158.311 179.936 179.751 162.314 179.989 179.851 2.90917 -0.00252284 -0.0496443 30.5589 -21.4059 4.26779 9.45347 -28.8237 0.375708 168.808 -158.24 155.111 101.689 -126.986 120.875 1.60017 -9.50194 -1.36192 -0 -15.1334 11.2206 169.611 153.365 -156.945 50.7317 29.212 -45.9037 1.28206 5.70401 1.62057 -0 41.9296 24.8044 77.0133 -20.0594 -27.7879 50.494 158.575 179.819 35.3557 0.0227956 -8.68273 1.43462 0 0 136.598 -10.8395 32.8267 83.5813 -161.029 179.501 39.847 -0.046663 -8.72273 179.697 180 -180
 -53.4431 34.4198 167.585 165.947 -160.763 170.239 3.55032e-05 0.0103852 -0.195872 159.615 179.979 179.674 158.21 179.938 179.674 162.194 179.99 179.804 3.04134 -0.0034641 -0.0651989 31.0062 -21.2607 4.39728 9.59181 -28.6421 0.43603 168.821 -158.157 155.139 100.264 -127.411 119.555 1.55054 -10.5104 -1.40605 -0 -15.9269 12.2616 169.43 153.856 -156.522 50.8112 29.2393 -45.1625 1.24434 5.72056 1.66831 -0 41.7289 24.7021 76.9685 -20.2835 -27.9258 50.2693 158.606 179.764 35.115 -0.0183044 -8.77233 1.44227 0 0 136.736 -10.9862 32.8078 83.9192 -160.98 179.874 39.9439 -0.0143942 -8.73477 179.705 180 -180
 -53.3155 34.2164 167.516 166.115 -160.946 170.499 2.86904e-05 0.00769532 -0.213615 159.565 179.985 179.644 158.143 179.954 179.644 162.111 179.992 179.786 3.14048 -0.00390091 -0.071098 31.3039 -21.0765 4.44233 9.6791 -28.3583 0.462987 168.847 -158.241 155.203 99.1773 -127.956 118.543 1.54517 -11.7131 -1.39787 -0 -17.0046 13.2734 169.401 154.516 -156.452 50.6979 29.0761 -44.1268 1.2254 5.68654 1.67218 -0 41.4227 24.6154 76.9269 -20.584 -28.022 50.0424 158.637 179.703 35.2568 -0.0521252 -8.90585 1.44878 0 0 136.815 -10.9121 32.8708 84.2562 -160.843 -179.863 39.934 -0.0157326 -8.72009 179.714 180 -180
